<mxfile host="app.diagrams.net" agent="Mozilla/5.0 (Windows NT 10.0; Win64; x64) AppleWebKit/537.36 (KHTML, like Gecko) Chrome/134.0.0.0 Safari/537.36 Edg/134.0.0.0" version="26.1.3">
  <diagram name="Page-1" id="_I7uEkAzOgdE-0GnaQGP">
    <mxGraphModel dx="1301" dy="707" grid="0" gridSize="10" guides="1" tooltips="1" connect="1" arrows="1" fold="1" page="1" pageScale="1" pageWidth="850" pageHeight="1100" math="0" shadow="0">
      <root>
        <mxCell id="0" />
        <mxCell id="1" parent="0" />
        <mxCell id="BwwECi_1TPFcPrx5lDiG-1" value="" style="rounded=1;whiteSpace=wrap;html=1;fillColor=#fff2cc;strokeColor=#d6b656;" parent="1" vertex="1">
          <mxGeometry x="240" y="120" width="200" height="80" as="geometry" />
        </mxCell>
        <mxCell id="BwwECi_1TPFcPrx5lDiG-2" value="I2C Sensors" style="text;html=1;align=center;verticalAlign=middle;whiteSpace=wrap;rounded=0;" parent="1" vertex="1">
          <mxGeometry x="255.92" y="140" width="160" height="30" as="geometry" />
        </mxCell>
        <mxCell id="BwwECi_1TPFcPrx5lDiG-3" value="" style="endArrow=classic;html=1;rounded=0;exitX=0.46;exitY=1;exitDx=0;exitDy=0;exitPerimeter=0;" parent="1" source="BwwECi_1TPFcPrx5lDiG-1" edge="1">
          <mxGeometry width="50" height="50" relative="1" as="geometry">
            <mxPoint x="360" y="230" as="sourcePoint" />
            <mxPoint x="332" y="240" as="targetPoint" />
          </mxGeometry>
        </mxCell>
        <mxCell id="BwwECi_1TPFcPrx5lDiG-5" value="" style="rounded=1;whiteSpace=wrap;html=1;fillColor=#dae8fc;strokeColor=#6c8ebf;" parent="1" vertex="1">
          <mxGeometry x="240" y="240" width="200" height="80" as="geometry" />
        </mxCell>
        <mxCell id="BwwECi_1TPFcPrx5lDiG-6" value="ESP32 Microcontroller" style="text;html=1;align=center;verticalAlign=middle;whiteSpace=wrap;rounded=0;" parent="1" vertex="1">
          <mxGeometry x="265.92" y="255" width="140" height="50" as="geometry" />
        </mxCell>
        <mxCell id="BwwECi_1TPFcPrx5lDiG-7" value="" style="endArrow=classic;html=1;rounded=0;exitX=0.455;exitY=1.013;exitDx=0;exitDy=0;exitPerimeter=0;" parent="1" source="BwwECi_1TPFcPrx5lDiG-5" edge="1">
          <mxGeometry width="50" height="50" relative="1" as="geometry">
            <mxPoint x="340" y="400" as="sourcePoint" />
            <mxPoint x="331" y="360" as="targetPoint" />
          </mxGeometry>
        </mxCell>
        <mxCell id="BwwECi_1TPFcPrx5lDiG-8" value="" style="rounded=0;whiteSpace=wrap;html=1;fillColor=#f8cecc;strokeColor=#b85450;" parent="1" vertex="1">
          <mxGeometry x="240" y="360" width="200" height="60" as="geometry" />
        </mxCell>
        <mxCell id="BwwECi_1TPFcPrx5lDiG-9" value="Raspberry Pi 5" style="text;html=1;align=center;verticalAlign=middle;whiteSpace=wrap;rounded=0;" parent="1" vertex="1">
          <mxGeometry x="285.92" y="375" width="100" height="30" as="geometry" />
        </mxCell>
        <mxCell id="BwwECi_1TPFcPrx5lDiG-11" value="" style="rounded=1;whiteSpace=wrap;html=1;fillColor=#e1d5e7;strokeColor=#9673a6;" parent="1" vertex="1">
          <mxGeometry x="80" y="480" width="240" height="150" as="geometry" />
        </mxCell>
        <mxCell id="BwwECi_1TPFcPrx5lDiG-12" value="" style="rounded=0;whiteSpace=wrap;html=1;" parent="1" vertex="1">
          <mxGeometry x="90" y="580" width="80" height="40" as="geometry" />
        </mxCell>
        <mxCell id="BwwECi_1TPFcPrx5lDiG-13" value="" style="rounded=0;whiteSpace=wrap;html=1;" parent="1" vertex="1">
          <mxGeometry x="220" y="580" width="80" height="40" as="geometry" />
        </mxCell>
        <mxCell id="BwwECi_1TPFcPrx5lDiG-14" value="InfluxDB" style="text;html=1;align=center;verticalAlign=middle;whiteSpace=wrap;rounded=0;" parent="1" vertex="1">
          <mxGeometry x="100" y="585" width="60" height="30" as="geometry" />
        </mxCell>
        <mxCell id="BwwECi_1TPFcPrx5lDiG-15" value="Local SSD" style="text;html=1;align=center;verticalAlign=middle;whiteSpace=wrap;rounded=0;" parent="1" vertex="1">
          <mxGeometry x="230" y="585" width="60" height="30" as="geometry" />
        </mxCell>
        <mxCell id="BwwECi_1TPFcPrx5lDiG-18" value="" style="endArrow=classic;html=1;rounded=0;entryX=0.4;entryY=0;entryDx=0;entryDy=0;entryPerimeter=0;" parent="1" target="BwwECi_1TPFcPrx5lDiG-12" edge="1">
          <mxGeometry width="50" height="50" relative="1" as="geometry">
            <mxPoint x="258" y="420" as="sourcePoint" />
            <mxPoint x="120" y="460" as="targetPoint" />
            <Array as="points">
              <mxPoint x="258" y="440" />
              <mxPoint x="120" y="440" />
            </Array>
          </mxGeometry>
        </mxCell>
        <mxCell id="BwwECi_1TPFcPrx5lDiG-19" value="Stored Data" style="text;html=1;align=center;verticalAlign=middle;whiteSpace=wrap;rounded=0;" parent="1" vertex="1">
          <mxGeometry x="170" y="410" width="60" height="30" as="geometry" />
        </mxCell>
        <mxCell id="BwwECi_1TPFcPrx5lDiG-21" value="Stored Data" style="text;html=1;align=center;verticalAlign=middle;whiteSpace=wrap;rounded=0;" parent="1" vertex="1">
          <mxGeometry x="260" y="450" width="60" height="30" as="geometry" />
        </mxCell>
        <mxCell id="BwwECi_1TPFcPrx5lDiG-22" value="" style="endArrow=classic;html=1;rounded=0;exitX=0.09;exitY=1.067;exitDx=0;exitDy=0;exitPerimeter=0;entryX=0.5;entryY=0;entryDx=0;entryDy=0;" parent="1" target="BwwECi_1TPFcPrx5lDiG-13" edge="1">
          <mxGeometry width="50" height="50" relative="1" as="geometry">
            <mxPoint x="308" y="424" as="sourcePoint" />
            <mxPoint x="172" y="580" as="targetPoint" />
            <Array as="points">
              <mxPoint x="308" y="450" />
              <mxPoint x="260" y="450" />
            </Array>
          </mxGeometry>
        </mxCell>
        <mxCell id="BwwECi_1TPFcPrx5lDiG-25" value="" style="rounded=1;whiteSpace=wrap;html=1;fillColor=#FFFF66;" parent="1" vertex="1">
          <mxGeometry x="520" y="520" width="120" height="60" as="geometry" />
        </mxCell>
        <mxCell id="BwwECi_1TPFcPrx5lDiG-26" value="Multi-touch dashboard" style="text;html=1;align=center;verticalAlign=middle;whiteSpace=wrap;rounded=0;" parent="1" vertex="1">
          <mxGeometry x="550" y="535" width="60" height="30" as="geometry" />
        </mxCell>
        <mxCell id="BwwECi_1TPFcPrx5lDiG-29" value="Real-time display" style="text;html=1;align=center;verticalAlign=middle;whiteSpace=wrap;rounded=0;" parent="1" vertex="1">
          <mxGeometry x="510" y="410" width="60" height="30" as="geometry" />
        </mxCell>
        <mxCell id="BwwECi_1TPFcPrx5lDiG-32" value="Storage" style="text;html=1;align=center;verticalAlign=middle;whiteSpace=wrap;rounded=0;" parent="1" vertex="1">
          <mxGeometry x="160" y="490" width="60" height="30" as="geometry" />
        </mxCell>
        <mxCell id="BwwECi_1TPFcPrx5lDiG-33" value="" style="sketch=0;pointerEvents=1;shadow=0;dashed=0;html=1;strokeColor=none;fillColor=#434445;aspect=fixed;labelPosition=center;verticalLabelPosition=bottom;verticalAlign=top;align=center;outlineConnect=0;shape=mxgraph.vvd.ssd;" parent="1" vertex="1">
          <mxGeometry x="220" y="554.5" width="35.92" height="25.5" as="geometry" />
        </mxCell>
        <mxCell id="BwwECi_1TPFcPrx5lDiG-34" value="" style="shape=datastore;whiteSpace=wrap;html=1;" parent="1" vertex="1">
          <mxGeometry x="90" y="559.5" width="20" height="30" as="geometry" />
        </mxCell>
        <mxCell id="BwwECi_1TPFcPrx5lDiG-42" value="" style="fontColor=#0066CC;verticalAlign=top;verticalLabelPosition=bottom;labelPosition=center;align=center;html=1;outlineConnect=0;fillColor=#CCCCCC;strokeColor=#6881B3;gradientColor=none;gradientDirection=north;strokeWidth=2;shape=mxgraph.networks.video_projector_screen;" parent="1" vertex="1">
          <mxGeometry x="600" y="490" width="20" height="30" as="geometry" />
        </mxCell>
        <mxCell id="BwwECi_1TPFcPrx5lDiG-43" value="" style="rounded=1;whiteSpace=wrap;html=1;fillColor=#f5f5f5;fontColor=#333333;strokeColor=#666666;" parent="1" vertex="1">
          <mxGeometry x="560" y="240" width="160" height="80" as="geometry" />
        </mxCell>
        <mxCell id="BwwECi_1TPFcPrx5lDiG-44" value="User Interaction" style="text;html=1;align=center;verticalAlign=middle;whiteSpace=wrap;rounded=0;" parent="1" vertex="1">
          <mxGeometry x="610" y="265" width="60" height="30" as="geometry" />
        </mxCell>
        <mxCell id="BwwECi_1TPFcPrx5lDiG-45" value="Actor" style="shape=umlActor;verticalLabelPosition=bottom;verticalAlign=top;html=1;outlineConnect=0;" parent="1" vertex="1">
          <mxGeometry x="680" y="200" width="20" height="40" as="geometry" />
        </mxCell>
        <mxCell id="BwwECi_1TPFcPrx5lDiG-46" value="" style="curved=1;endArrow=classic;html=1;rounded=0;exitX=1;exitY=0.5;exitDx=0;exitDy=0;entryX=0.375;entryY=0;entryDx=0;entryDy=0;entryPerimeter=0;" parent="1" source="BwwECi_1TPFcPrx5lDiG-25" target="BwwECi_1TPFcPrx5lDiG-43" edge="1">
          <mxGeometry width="50" height="50" relative="1" as="geometry">
            <mxPoint x="530" y="390" as="sourcePoint" />
            <mxPoint x="550" y="190" as="targetPoint" />
            <Array as="points">
              <mxPoint x="715" y="524" />
              <mxPoint x="530" y="340" />
              <mxPoint x="540" y="210" />
              <mxPoint x="620" y="210" />
            </Array>
          </mxGeometry>
        </mxCell>
        <mxCell id="BwwECi_1TPFcPrx5lDiG-47" value="User Commands" style="text;html=1;align=center;verticalAlign=middle;whiteSpace=wrap;rounded=0;" parent="1" vertex="1">
          <mxGeometry x="550" y="170" width="60" height="30" as="geometry" />
        </mxCell>
        <mxCell id="BwwECi_1TPFcPrx5lDiG-49" value="" style="sketch=0;outlineConnect=0;fontColor=#232F3E;gradientColor=none;fillColor=#7AA116;strokeColor=none;dashed=0;verticalLabelPosition=bottom;verticalAlign=top;align=center;html=1;fontSize=12;fontStyle=0;aspect=fixed;pointerEvents=1;shape=mxgraph.aws4.iot_thing_temperature_sensor;" parent="1" vertex="1">
          <mxGeometry x="245" y="90" width="30" height="30" as="geometry" />
        </mxCell>
        <mxCell id="BwwECi_1TPFcPrx5lDiG-50" value="" style="verticalLabelPosition=bottom;aspect=fixed;html=1;verticalAlign=top;fillColor=strokeColor;align=center;outlineConnect=0;shape=mxgraph.fluid_power.x11770;points=[[0,0.5,0]]" parent="1" vertex="1">
          <mxGeometry x="259.93" y="110.05999999999999" width="30.07" height="17.96" as="geometry" />
        </mxCell>
        <mxCell id="BwwECi_1TPFcPrx5lDiG-51" value="Sensor Data" style="text;html=1;align=center;verticalAlign=middle;whiteSpace=wrap;rounded=0;" parent="1" vertex="1">
          <mxGeometry x="325.91999999999996" y="205" width="60" height="30" as="geometry" />
        </mxCell>
        <mxCell id="BwwECi_1TPFcPrx5lDiG-52" value="Processed Data" style="text;html=1;align=center;verticalAlign=middle;whiteSpace=wrap;rounded=0;" parent="1" vertex="1">
          <mxGeometry x="330.92" y="330" width="75" height="30" as="geometry" />
        </mxCell>
        <mxCell id="-YOW0ayj7KMNFAMAeEhP-2" value="" style="endArrow=classic;startArrow=classic;html=1;rounded=0;" edge="1" parent="1">
          <mxGeometry width="50" height="50" relative="1" as="geometry">
            <mxPoint x="580" y="520" as="sourcePoint" />
            <mxPoint x="430" y="420" as="targetPoint" />
            <Array as="points">
              <mxPoint x="580" y="440" />
              <mxPoint x="430" y="440" />
            </Array>
          </mxGeometry>
        </mxCell>
        <mxCell id="-YOW0ayj7KMNFAMAeEhP-5" value="&lt;font style=&quot;font-size: 24px;&quot;&gt;Slutt Produktet/Systemet&lt;/font&gt;" style="text;html=1;align=center;verticalAlign=middle;whiteSpace=wrap;rounded=0;fillColor=#fad7ac;strokeColor=#b46504;" vertex="1" parent="1">
          <mxGeometry x="203.42000000000002" y="10" width="330" height="70" as="geometry" />
        </mxCell>
      </root>
    </mxGraphModel>
  </diagram>
</mxfile>
